# xmcd
#
# Track frame offsets:
#	187
#	11950
#	40825
#	52600
#	70075
#	85150
#	100225
#	131275
#	144025
#	157750
#	189475
#	209425
#	223600
#	243325
#	270925
#	296350
#
# Disc length: 4215
#
# Revision: 3
# Processed by: cddbd v1.5.1PL0 Copyright (c) Steve Scherf et al.
# Submitted via: EasyCDDAExtractor 7.0.4.1
# Normalized: r2:DSETVAR1
#
DISCID=ce107510
DTITLE=Various Artist - Bosses Of The Blues (Vol. 2)
DYEAR=1900
DGENRE=Blues
TTITLE0=Eddie "Cleanhead" Vinson - Cleanhead Blues
TTITLE1=Eddie "Cleanhead" Vinson - Pass Out
TTITLE2=Eddie "Cleanhead" Vinson - Alimony Blues
TTITLE3=Eddie "Cleanhead" Vinson - Cleanhead Is Back
TTITLE4=Eddie "Cleanhead" Vinson - Juice Head Baby
TTITLE5=Eddie "Cleanhead" Vinson - Old Maid Boogie
TTITLE6=Eddie "Cleanhead" Vinson - One O' Clock Humph
TTITLE7=Eddie "Cleanhead" Vinson - I Needs To Be'd Wid
TTITLE8=Otis Spann - Got My Mojo Workin
TTITLE9=Otis Spann - Sellin' My Thing
TTITLE10=Otis Spann - Moon Blues
TTITLE11=Otis Spann - I'm A Dues Payin' Man
TTITLE12=Otis Spann - I Wonder Why
TTITLE13=Otis Spann - Bird In A Cage
TTITLE14=Otis Spann - Hey Baby
TTITLE15=Otis Spann - Make A Way
EXTD=
EXTT0=
EXTT1=
EXTT2=
EXTT3=
EXTT4=
EXTT5=
EXTT6=
EXTT7=
EXTT8=
EXTT9=
EXTT10=
EXTT11=
EXTT12=
EXTT13=
EXTT14=
EXTT15=
PLAYORDER=
